# xmcd
#
# Track frame offsets:
#	150
#	14838
#	35610
#	57233
#	79270
#	94403
#	119118
#	143293
#	170968
#	191168
#	219058
#
# Disc length: 3276 seconds
#
# Revision: 1
# Processed by: cddbd v1.5.2PL0 Copyright (c) Steve Scherf et al.
# Submitted via: EZCDAudioConverter 8.0.2.1
#
DISCID=a30cca0b
DTITLE=Duy Quang, Kim Anh - Ai Buồn Hơn Ai
DYEAR=1996
DGENRE=World Pop
TTITLE0=Duy Quang, Kim Anh - Tình là sợi tơ
TTITLE1=Duy Quang - Tình đẹp xót xa
TTITLE2=Kim Anh - làm sao mà quên được
TTITLE3=Duy Quang - Đi tìm kỷ niệm
TTITLE4=Duy Quang, Kim Anh - Ai Buồn Hơn Ai
TTITLE5=Kim Anh - Mùa đông cuối cùng
TTITLE6=Duy Quang, Kim Anh - Tóc em chưa úa nắng hè
TTITLE7=Kim Anh - Sao đành xa em
TTITLE8=Duy Quang - Tiễn bước sang ngang
TTITLE9=Duy Quang, Kim Anh - Biết nói gì đây
TTITLE10=Duy Quang - Mùa thu xa em
EXTD=
EXTT0=
EXTT1=
EXTT2=
EXTT3=
EXTT4=
EXTT5=
EXTT6=
EXTT7=
EXTT8=
EXTT9=
EXTT10=
PLAYORDER=
